<?xml version="1.0" encoding="utf-8"?>
<!-- Generator: Adobe Illustrator 13.0.0, SVG Export Plug-In . SVG Version: 6.00 Build 14948)  -->
<!DOCTYPE svg PUBLIC "-//W3C//DTD SVG 1.1//EN" "http://www.w3.org/Graphics/SVG/1.1/DTD/svg11.dtd">
<svg version="1.1" id="Layer_1" xmlns="http://www.w3.org/2000/svg" xmlns:xlink="http://www.w3.org/1999/xlink" x="0px" y="0px"
	 width="512px" height="512px" viewBox="0 0 512 512" enable-background="new 0 0 512 512" xml:space="preserve">
<path id="book-16-icon" fill="#468847" d="M422,99.775v248.172c-57.842,4.348-106.682,14.386-146,29.986V177.696
	c10.152-6.315,21.41-11.648,33.323-16.166v-42.394c-19.794,6.357-37.812,14.236-53.323,23.894
	c-50.446-31.404-127.301-44.056-206-46.457v289.334c67.575,2.062,133.791,11.682,183.096,34.239
	c14.525,6.646,31.267,6.654,45.792,0.008c49.306-22.563,115.528-32.184,183.111-34.247V94.573
	C449.25,94.774,433.441,96.898,422,99.775z M236,377.934c-39.318-15.601-88.158-25.639-146-29.985V138.869
	c47.504,3.985,105.514,13.64,146,38.827V377.934z M335.188,125.126c0,11.271,0,105.906,0,105.906l29.809-36.729l29.809,25.692
	V112.089c0-14.314,6.287-21.604,16.791-25.226c-22.095,3.286-46.345,8.911-59.009,12.946
	C343.608,102.67,335.188,111.345,335.188,125.126z"/>
</svg>
